<?xml version="1.0" encoding="iso-8859-1"?>
<!-- Uploaded to: SVG Repo, www.svgrepo.com, Generator: SVG Repo Mixer Tools -->
<svg fill="#000000" version="1.1" id="Layer_1" xmlns="http://www.w3.org/2000/svg" xmlns:xlink="http://www.w3.org/1999/xlink" 
	 viewBox="0 0 512 512" xml:space="preserve">
<g>
	<g>
		<path d="M475.028,454.891l-199.819-351.24l36.08-63.421l-29.024-16.511L256,69.887l-26.266-46.169l-29.024,16.511l36.08,63.421
			L36.972,454.891H0v33.391h512v-33.391H475.028z M177.934,433.979l-15.315-16.345l41.169-37.737L177.934,433.979z M204.948,454.89
			L256,348.1l51.051,106.79H204.948z M334.066,433.979l-25.854-54.082l41.169,37.737L334.066,433.979z M360.23,454.891l36.6-39.06
			L256,286.741L115.17,415.83l36.6,39.06H75.39L256,137.416l180.61,317.474H360.23z"/>
	</g>
</g>
<g>
	<g>
		<rect x="223.744" y="219.091" width="64.506" height="33.391"/>
	</g>
</g>
</svg>